<svg width="120" height="120" viewBox="0 0 120 120" fill="none" xmlns="http://www.w3.org/2000/svg">
<path d="M58.725 97.6125C79.8913 97.6125 97.05 80.4538 97.05 59.2875C97.05 38.1212 79.8913 20.9625 58.725 20.9625C37.5587 20.9625 20.4 38.1212 20.4 59.2875C20.4 80.4538 37.5587 97.6125 58.725 97.6125Z" stroke="#E0683B" stroke-width="6.75" stroke-miterlimit="10"/>
<path d="M57 70.875V60.6C53.775 59.7 51.45 58.3125 49.95 56.4375C48.45 54.5625 47.7 52.3125 47.7 49.6875C47.7 46.9875 48.5625 44.7375 50.25 42.9375C51.9375 41.1 54.1875 40.05 57 39.7875V37.3125H60.5625V39.75C63.15 40.05 65.25 40.95 66.7875 42.4125C68.325 43.875 69.3 45.825 69.75 48.3L63.525 49.125C63.15 47.175 62.175 45.9 60.5625 45.1875V54.7875C64.5 55.8375 67.1625 57.225 68.5875 58.9125C70.0125 60.6 70.725 62.775 70.725 65.4375C70.725 68.4 69.825 70.9125 68.025 72.9375C66.225 74.9625 63.75 76.2 60.5625 76.6875V81.2625H57V76.8C54.15 76.4625 51.8625 75.4125 50.1 73.65C48.3375 71.8875 47.2125 69.375 46.725 66.15L53.1375 65.475C53.4 66.7875 53.8875 67.9125 54.6 68.85C55.3125 69.7875 56.1375 70.4625 57 70.875ZM57 45.1125C56.025 45.45 55.275 46.0125 54.675 46.8C54.1125 47.5875 53.8125 48.45 53.8125 49.3875C53.8125 50.25 54.075 51.075 54.6 51.7875C55.125 52.5375 55.9125 53.1375 57 53.5875V45.1125ZM60.5625 71.2125C61.8 70.9875 62.775 70.425 63.5625 69.525C64.35 68.625 64.725 67.5375 64.725 66.3375C64.725 65.25 64.3875 64.3125 63.75 63.4875C63.1125 62.7 62.0625 62.1 60.5625 61.65V71.2125Z" fill="#E0683B"/>
</svg>
