<svg width="75" height="75" viewBox="0 0 75 75" fill="none" xmlns="http://www.w3.org/2000/svg">
<path d="M37.5 40.625V62.5L21.875 68.75V46.875L37.5 40.625ZM53.125 46.875V68.75L68.75 62.5V40.625L53.125 46.875ZM37.5 18.75V40.625L53.125 34.375V12.5L37.5 18.75Z" fill="#64748B"/>
<path d="M6.25 40.625L21.875 46.875V68.75L6.25 62.5V40.625ZM37.5 62.5L53.125 68.75V46.875L37.5 40.625V62.5ZM21.875 34.375L37.5 40.625V18.75L21.875 12.5V34.375Z" fill="#CBD5E1"/>
<path d="M37.5 40.625L21.875 46.875L6.25 40.625L21.875 34.375L37.5 40.625ZM53.125 34.375L37.5 40.625L53.125 46.875L68.75 40.625L53.125 34.375ZM37.5 6.25L21.875 12.5L37.5 18.75L53.125 12.5L37.5 6.25Z" fill="#F1F5F9"/>
<path d="M69.3297 39.1737L54.6875 33.3169V12.5C54.6875 11.8606 54.3 11.2869 53.7047 11.0487L38.0797 4.79874C37.7075 4.64906 37.2922 4.64906 36.92 4.79874L21.2953 11.0487C20.7003 11.2869 20.3125 11.8606 20.3125 12.5V33.3169L5.67031 39.1737C5.07531 39.4119 4.6875 39.9856 4.6875 40.625V62.5C4.6875 63.1394 5.075 63.7131 5.67031 63.9512L21.2659 70.1897L21.2953 70.2012C21.4816 70.2759 21.6769 70.3125 21.875 70.3125C22.0731 70.3125 22.2688 70.2759 22.4547 70.2012L22.4825 70.1903L37.5 64.1831L52.5159 70.1897L52.5453 70.2012C52.7316 70.2759 52.9269 70.3125 53.125 70.3125C53.3231 70.3125 53.5187 70.2759 53.7047 70.2012L53.7325 70.1903L69.3297 63.9512C69.9247 63.7131 70.3125 63.1394 70.3125 62.5V40.625C70.3125 39.9856 69.925 39.4119 69.3297 39.1737ZM20.3125 66.4422L7.8125 61.4425V42.9331L20.3125 47.9328V66.4422ZM21.875 45.1922L10.4566 40.625L21.875 36.0581L33.2928 40.6253L21.875 45.1922ZM35.9375 61.4428L23.4375 66.4425V47.9334L35.9375 42.9341V61.4428ZM35.9375 38.3172L23.4375 33.3172V14.8081L35.9375 19.8078V38.3172ZM26.0816 12.4997L37.5 7.93281L48.9184 12.4997L37.5 17.0666L26.0816 12.4997ZM51.5625 14.8084V33.3169L39.0625 38.3169V19.8081L51.5625 14.8084ZM51.5625 66.4419L39.0625 61.4422V42.9328L51.5625 47.9325V66.4419ZM53.125 45.1919L41.7072 40.625L53.125 36.0578L64.5434 40.6247L53.125 45.1919ZM67.1875 61.4425L54.6875 66.4422V47.9331L67.1875 42.9337V61.4425Z" fill="#0F172A"/>
</svg>
