<svg width="90" height="90" viewBox="0 0 90 90" fill="none" xmlns="http://www.w3.org/2000/svg">
<g clip-path="url(#clip0_49_607)">
<path d="M53.4375 9.84372C53.4375 12.0815 52.5486 14.2276 50.9662 15.8099C49.3839 17.3923 47.2378 18.2812 45 18.2812C42.7622 18.2812 40.6161 17.3923 39.0338 15.8099C37.4514 14.2276 36.5625 12.0815 36.5625 9.84372C36.5625 9.53435 36.5906 9.22497 36.6188 8.9156C36.8538 6.85964 37.8363 4.96176 39.3792 3.58282C40.9222 2.20389 42.9181 1.44007 44.9875 1.4366C47.0568 1.43312 49.0553 2.19024 50.6029 3.56399C52.1505 4.93774 53.1393 6.83231 53.3812 8.88747C53.4094 9.19685 53.4375 9.53435 53.4375 9.84372Z" fill="#FFD9AA"/>
<path d="M53.3812 8.88747L52.228 8.49372L45.3374 6.5531C44.3092 6.24156 43.2042 6.3013 42.2155 6.72185L37.7718 8.49372L36.6187 8.9156C36.8537 6.85964 37.8362 4.96176 39.3791 3.58282C40.9221 2.20389 42.918 1.44007 44.9874 1.4366C47.0567 1.43312 49.0552 2.19024 50.6028 3.56399C52.1504 4.93774 53.1392 6.83231 53.3812 8.88747Z" fill="#57565D"/>
<path d="M50.2734 21.0938C52.2315 21.0937 54.1093 21.8716 55.4939 23.2561C56.8784 24.6407 57.6562 26.5185 57.6562 28.4766V32.3438C57.6562 33.0897 57.3599 33.805 56.8325 34.3325C56.305 34.8599 55.5897 35.1562 54.8438 35.1562H35.1562C34.4103 35.1562 33.695 34.8599 33.1675 34.3325C32.6401 33.805 32.3438 33.0897 32.3438 32.3438V28.4766C32.3437 26.5185 33.1216 24.6407 34.5061 23.2561C35.8907 21.8716 37.7685 21.0938 39.7266 21.0938H40.7812" fill="#ED456A"/>
<path d="M49.2188 15.4688V19.6875C49.2188 20.8064 48.7743 21.8794 47.9831 22.6706C47.1919 23.4618 46.1189 23.9062 45 23.9062C43.8811 23.9062 42.8081 23.4618 42.0169 22.6706C41.2257 21.8794 40.7812 20.8064 40.7812 19.6875V15.4688H49.2188ZM22.5 63.2812C22.5 65.519 21.6111 67.6651 20.0287 69.2475C18.4464 70.8298 16.3003 71.7188 14.0625 71.7188C11.8247 71.7188 9.67863 70.8298 8.09629 69.2475C6.51395 67.6651 5.625 65.519 5.625 63.2812C5.625 62.9719 5.65312 62.6625 5.68125 62.3531C5.91633 60.2972 6.89875 58.3993 8.44173 57.0204C9.9847 55.6414 11.9806 54.8776 14.05 54.8741C16.1193 54.8707 18.1178 55.6278 19.6654 57.0015C21.213 58.3753 22.2018 60.2698 22.4438 62.325C22.4719 62.6344 22.5 62.9719 22.5 63.2812Z" fill="#FFD9AA"/>
<path d="M22.4437 62.325L21.2905 61.9313L14.3999 59.9907C13.3717 59.6791 12.2667 59.7389 11.278 60.1594L6.83428 61.9313L5.68115 62.3532C5.91623 60.2972 6.89865 58.3993 8.44163 57.0204C9.98461 55.6415 11.9805 54.8776 14.0499 54.8742C16.1192 54.8707 18.1177 55.6278 19.6653 57.0016C21.2129 58.3753 22.2017 60.2699 22.4437 62.325Z" fill="#57565D"/>
<path d="M19.3359 74.5312C21.294 74.5312 23.1718 75.3091 24.5564 76.6936C25.9409 78.0782 26.7188 79.956 26.7188 81.9141V85.7812C26.7188 86.5272 26.4224 87.2425 25.895 87.77C25.3675 88.2974 24.6522 88.5938 23.9062 88.5938H4.21875C3.47283 88.5938 2.75746 88.2974 2.23001 87.77C1.70257 87.2425 1.40625 86.5272 1.40625 85.7812V81.9141C1.40625 79.956 2.18408 78.0782 3.56863 76.6936C4.95317 75.3091 6.83102 74.5312 8.78906 74.5312H9.84375" fill="#55BB8C"/>
<path d="M18.2812 68.9063V73.125C18.2812 74.2439 17.8368 75.317 17.0456 76.1081C16.2544 76.8993 15.1814 77.3438 14.0625 77.3438C12.9436 77.3438 11.8706 76.8993 11.0794 76.1081C10.2882 75.317 9.84375 74.2439 9.84375 73.125V68.9063H18.2812ZM84.375 63.2813C84.375 65.519 83.4861 67.6652 81.9037 69.2475C80.3214 70.8298 78.1753 71.7188 75.9375 71.7188C73.6997 71.7188 71.5536 70.8298 69.9713 69.2475C68.3889 67.6652 67.5 65.519 67.5 63.2813C67.5 62.9719 67.5281 62.6625 67.5563 62.3532C67.7913 60.2972 68.7738 58.3993 70.3167 57.0204C71.8597 55.6415 73.8556 54.8776 75.925 54.8742C77.9943 54.8707 79.9928 55.6278 81.5404 57.0016C83.088 58.3753 84.0768 60.2699 84.3187 62.325C84.3469 62.6344 84.375 62.9719 84.375 63.2813Z" fill="#FFD9AA"/>
<path d="M84.3187 62.325L83.1655 61.9313L76.2749 59.9907C75.2467 59.6791 74.1417 59.7389 73.153 60.1594L68.7093 61.9313L67.5562 62.3532C67.7912 60.2972 68.7737 58.3993 70.3166 57.0204C71.8596 55.6415 73.8555 54.8776 75.9249 54.8742C77.9942 54.8707 79.9927 55.6278 81.5403 57.0016C83.0879 58.3753 84.0767 60.2699 84.3187 62.325Z" fill="#57565D"/>
<path d="M81.2109 74.5312C83.169 74.5312 85.0468 75.3091 86.4314 76.6936C87.8159 78.0782 88.5938 79.956 88.5938 81.9141V85.7812C88.5938 86.5272 88.2974 87.2425 87.77 87.77C87.2425 88.2974 86.5272 88.5938 85.7812 88.5938H66.0938C65.3478 88.5938 64.6325 88.2974 64.105 87.77C63.5776 87.2425 63.2812 86.5272 63.2812 85.7812V81.9141C63.2812 79.956 64.0591 78.0782 65.4436 76.6936C66.8282 75.3091 68.706 74.5312 70.6641 74.5312H71.7188" fill="#82C8EC"/>
<path d="M80.1562 68.9062V73.125C80.1562 74.2439 79.7118 75.3169 78.9206 76.1081C78.1294 76.8993 77.0564 77.3438 75.9375 77.3438C74.8186 77.3438 73.7456 76.8993 72.9544 76.1081C72.1632 75.3169 71.7188 74.2439 71.7188 73.125V68.9062H80.1562Z" fill="#FFD9AA"/>
<path d="M26.4768 21.2287L26.5696 15.6037L20.8518 15.5109" stroke="black" stroke-linecap="round" stroke-linejoin="round"/>
<path d="M75.7153 42.5335L79.9819 46.1981L83.6494 41.9316" stroke="black" stroke-linecap="round" stroke-linejoin="round"/>
<path d="M39.704 80.7694L35.3418 84.3216L38.8968 88.6838" stroke="black" stroke-linecap="round" stroke-linejoin="round"/>
<path d="M57.1921 83.3485C50.2509 86.2334 42.5116 86.5632 35.3502 84.2794M60.7499 14.0119C66.3679 17.3715 71.0688 22.0671 74.4347 27.6813C77.8007 33.2954 79.7274 39.6543 80.0436 46.1925M9.84363 49.2188C9.7293 42.6958 11.19 36.2415 14.1017 30.4034C17.0134 24.5652 21.2903 19.5155 26.5696 15.6825" stroke="black" stroke-linecap="round" stroke-linejoin="round"/>
<path d="M8.4375 49.2188C8.4375 49.5917 8.58566 49.9494 8.84938 50.2132C9.1131 50.4769 9.47079 50.625 9.84375 50.625C10.2167 50.625 10.5744 50.4769 10.8381 50.2132C11.1018 49.9494 11.25 49.5917 11.25 49.2188C11.1592 43.4125 12.3552 37.6582 14.752 32.3689C17.1489 27.0797 20.6872 22.3868 25.1128 18.6272L25.0706 21.2063C25.0676 21.391 25.1011 21.5744 25.169 21.7462C25.2369 21.9179 25.338 22.0746 25.4665 22.2073C25.595 22.34 25.7484 22.446 25.9179 22.5194C26.0874 22.5928 26.2697 22.6321 26.4544 22.635H26.4769C26.846 22.6351 27.2003 22.49 27.4634 22.2311C27.7265 21.9723 27.8772 21.6203 27.8831 21.2513L27.9759 15.6263C27.9697 15.5733 27.9603 15.5207 27.9478 15.4688C27.9478 15.4266 27.9478 15.3844 27.9253 15.3422C27.8828 15.0744 27.7625 14.825 27.5794 14.625C27.4506 14.4921 27.2969 14.386 27.127 14.3126C26.9571 14.2393 26.7744 14.2001 26.5894 14.1975L20.8744 14.1047C20.6888 14.0983 20.5038 14.1293 20.3306 14.196C20.1573 14.2627 19.9992 14.3637 19.8658 14.4929C19.7325 14.622 19.6265 14.7768 19.5543 14.9479C19.4821 15.1189 19.4451 15.3028 19.4456 15.4885C19.4426 15.6731 19.4761 15.8566 19.544 16.0284C19.6119 16.2001 19.713 16.3568 19.8415 16.4895C19.97 16.6222 20.1234 16.7282 20.2929 16.8016C20.4624 16.875 20.6447 16.9143 20.8294 16.9172L22.7138 16.9482C18.1494 20.9808 14.5106 25.9523 12.0465 31.5222C9.58242 37.0921 8.35132 43.1288 8.4375 49.2188ZM81.5625 73.1616V71.7188C81.5545 71.6078 81.5328 71.4982 81.4978 71.3925C83.233 70.2052 84.5425 68.4935 85.2344 66.508C85.9263 64.5226 85.9643 62.3678 85.3429 60.3592C84.7214 58.3506 83.4732 56.5937 81.781 55.3459C80.0888 54.0981 78.0415 53.4249 75.9389 53.4249C73.8364 53.4249 71.7891 54.0981 70.0968 55.3459C68.4046 56.5937 67.1564 58.3506 66.5349 60.3592C65.9135 62.3678 65.9515 64.5226 66.6434 66.508C67.3354 68.4935 68.6448 70.2052 70.38 71.3925C70.3441 71.4981 70.3214 71.6077 70.3125 71.7188V73.1616C68.0488 73.2508 65.9071 74.2112 64.3348 75.8422C62.7625 77.4732 61.8812 79.6487 61.875 81.9141V85.7813C61.875 86.9002 62.3195 87.9732 63.1106 88.7644C63.9018 89.5556 64.9749 90 66.0938 90H85.7812C86.9001 90 87.9732 89.5556 88.7644 88.7644C89.5555 87.9732 90 86.9002 90 85.7813V81.9141C89.9938 79.6487 89.1125 77.4732 87.5402 75.8422C85.9679 74.2112 83.8262 73.2508 81.5625 73.1616ZM75.9375 56.25C77.2527 56.2555 78.54 56.6297 79.6532 57.3303C80.7664 58.0308 81.6607 59.0295 82.2347 60.2128L76.6575 58.6322C75.3265 58.2551 73.908 58.3303 72.6244 58.846L69.7556 60.0019C70.3477 58.8737 71.2361 57.9282 72.3253 57.2671C73.4146 56.6061 74.6634 56.2544 75.9375 56.25ZM68.9062 63.3066C69.0161 63.2989 69.1247 63.2781 69.2297 63.2447L73.6762 61.4532C74.3785 61.1648 75.1579 61.1232 75.8869 61.335L82.7859 63.3038C82.8468 63.3078 82.9079 63.3078 82.9688 63.3038C82.9688 65.1686 82.228 66.957 80.9093 68.2756C79.5907 69.5942 77.8023 70.335 75.9375 70.335C74.0727 70.335 72.2843 69.5942 70.9657 68.2756C69.647 66.957 68.9062 65.1686 68.9062 63.3038V63.3066ZM78.75 72.6666V73.125C78.75 73.8709 78.4537 74.5863 77.9262 75.1138C77.3988 75.6412 76.6834 75.9375 75.9375 75.9375C75.1916 75.9375 74.4762 75.6412 73.9488 75.1138C73.4213 74.5863 73.125 73.8709 73.125 73.125V72.6666C74.9501 73.2787 76.9249 73.2787 78.75 72.6666ZM87.1875 85.7813C87.1875 86.1542 87.0393 86.5119 86.7756 86.7757C86.5119 87.0394 86.1542 87.1875 85.7812 87.1875H66.0938C65.7208 87.1875 65.3631 87.0394 65.0994 86.7757C64.8357 86.5119 64.6875 86.1542 64.6875 85.7813V81.9141C64.689 80.3295 65.3191 78.8102 66.4396 77.6897C67.5601 76.5692 69.0794 75.939 70.6641 75.9375H71.0944C71.5854 76.7985 72.2971 77.513 73.1562 78.0073C74.0152 78.5017 74.9906 78.7581 75.9817 78.75C76.9728 78.742 77.9438 78.4699 78.7948 77.9617C79.6457 77.4535 80.3458 76.7276 80.8228 75.8588C80.9477 75.9038 81.0784 75.9303 81.2109 75.9375C82.7956 75.939 84.3149 76.5692 85.4354 77.6897C86.5559 78.8102 87.186 80.3295 87.1875 81.9141V85.7813ZM50.625 19.7241V18.2813C50.617 18.1703 50.5953 18.0607 50.5603 17.955C52.2955 16.7677 53.605 15.056 54.2969 13.0705C54.9888 11.0851 55.0268 8.93029 54.4054 6.92168C53.7839 4.91307 52.5357 3.15621 50.8435 1.90839C49.1513 0.660572 47.1039 -0.0126343 45.0014 -0.0126343C42.8989 -0.0126343 40.8516 0.660572 39.1593 1.90839C37.4671 3.15621 36.2189 4.91307 35.5974 6.92168C34.976 8.93029 35.014 11.0851 35.7059 13.0705C36.3979 15.056 37.7073 16.7677 39.4425 17.955C39.4066 18.0606 39.3839 18.1702 39.375 18.2813V19.7241C37.1111 19.8126 34.969 20.7728 33.3965 22.404C31.8241 24.0351 30.943 26.2109 30.9375 28.4766V32.3438C30.9375 33.4627 31.382 34.5357 32.1731 35.3269C32.9643 36.1181 34.0374 36.5625 35.1562 36.5625H54.8438C55.9626 36.5625 57.0357 36.1181 57.8269 35.3269C58.618 34.5357 59.0625 33.4627 59.0625 32.3438V28.4766C59.057 26.2109 58.1759 24.0351 56.6035 22.404C55.031 20.7728 52.8889 19.8126 50.625 19.7241ZM45 2.81253C46.3155 2.81825 47.6031 3.19292 48.7162 3.89395C49.8294 4.59497 50.7236 5.59424 51.2972 6.77815L45.7172 5.1919C44.3867 4.81842 42.9703 4.89354 41.6869 5.40565L38.8181 6.5644C39.4102 5.43619 40.2986 4.49071 41.3878 3.82964C42.4771 3.16858 43.7259 2.81693 45 2.81253ZM37.9688 9.8719C38.0786 9.86428 38.1872 9.84351 38.2922 9.81003L42.75 8.01565C43.4533 7.73165 44.2311 7.69008 44.9606 7.89753L51.8597 9.86628C51.9196 9.87032 51.9798 9.87032 52.0397 9.86628C52.0397 11.7311 51.2989 13.5195 49.9803 14.8381C48.6617 16.1567 46.8732 16.8975 45.0084 16.8975C43.1436 16.8975 41.3552 16.1567 40.0366 14.8381C38.718 13.5195 37.9772 11.7311 37.9772 9.86628L37.9688 9.8719ZM47.8125 19.2291V19.6875C47.8125 20.4335 47.5162 21.1488 46.9887 21.6763C46.4613 22.2037 45.7459 22.5 45 22.5C44.2541 22.5 43.5387 22.2037 43.0113 21.6763C42.4838 21.1488 42.1875 20.4335 42.1875 19.6875V19.2291C44.0126 19.8412 45.9874 19.8412 47.8125 19.2291ZM56.25 32.3438C56.25 32.7167 56.1018 33.0744 55.8381 33.3382C55.5744 33.6019 55.2167 33.75 54.8438 33.75H35.1562C34.7833 33.75 34.4256 33.6019 34.1619 33.3382C33.8982 33.0744 33.75 32.7167 33.75 32.3438V28.4766C33.7515 26.892 34.3816 25.3727 35.5021 24.2522C36.6226 23.1317 38.1419 22.5015 39.7266 22.5H40.1569C40.6479 23.361 41.3596 24.0755 42.2187 24.5698C43.0777 25.0642 44.0531 25.3206 45.0442 25.3125C46.0353 25.3045 47.0063 25.0324 47.8573 24.5242C48.7082 24.016 49.4083 23.2901 49.8853 22.4213C50.0102 22.4662 50.1409 22.4927 50.2734 22.5C51.8581 22.5015 53.3774 23.1317 54.4979 24.2522C55.6184 25.3727 56.2485 26.892 56.25 28.4766V32.3438ZM78.21 42.8203L76.6322 41.4647C76.3485 41.2267 75.9824 41.1102 75.6133 41.1405C75.2442 41.1708 74.902 41.3454 74.6609 41.6265C74.4198 41.9076 74.2993 42.2724 74.3256 42.6418C74.3519 43.0112 74.5228 43.3553 74.8013 43.5994L79.0678 47.2557C79.3229 47.4751 79.6482 47.5959 79.9847 47.596H80.1562C80.3856 47.5777 80.6068 47.5026 80.7998 47.3774C80.9927 47.2522 81.1515 47.0808 81.2616 46.8788L84.7238 42.8485C84.9618 42.5648 85.0783 42.1987 85.048 41.8296C85.0177 41.4605 84.8431 41.1183 84.562 40.8772C84.2809 40.6361 83.9161 40.5156 83.5467 40.5419C83.1773 40.5682 82.8332 40.7391 82.5891 41.0175L81.045 42.8147C80.2715 36.6503 78.1049 30.7429 74.7094 25.54C71.314 20.3372 66.7788 15.9756 61.4475 12.7857C61.2863 12.6873 61.1069 12.6224 60.92 12.5948C60.7332 12.5673 60.5427 12.5777 60.3599 12.6253C60.1772 12.673 60.0059 12.757 59.8563 12.8723C59.7068 12.9877 59.5819 13.1319 59.4893 13.2965C59.3967 13.4611 59.3382 13.6427 59.3173 13.8304C59.2964 14.0182 59.3136 14.2081 59.3677 14.3891C59.4218 14.57 59.5119 14.7382 59.6324 14.8836C59.753 15.029 59.9016 15.1486 60.0694 15.2353C64.9708 18.1756 69.1468 22.1823 72.2874 26.9578C75.4279 31.7334 77.4522 37.1551 78.21 42.8203ZM19.6875 73.1616V71.7188C19.6795 71.6078 19.6578 71.4982 19.6228 71.3925C21.358 70.2052 22.6675 68.4935 23.3594 66.508C24.0513 64.5226 24.0893 62.3678 23.4679 60.3592C22.8464 58.3506 21.5982 56.5937 19.906 55.3459C18.2138 54.0981 16.1664 53.4249 14.0639 53.4249C11.9614 53.4249 9.91406 54.0981 8.22183 55.3459C6.5296 56.5937 5.28137 58.3506 4.65994 60.3592C4.03851 62.3678 4.07653 64.5226 4.76845 66.508C5.46036 68.4935 6.7698 70.2052 8.505 71.3925C8.46909 71.4981 8.44641 71.6077 8.4375 71.7188V73.1616C6.17381 73.2508 4.03212 74.2112 2.45983 75.8422C0.887529 77.4732 0.00622207 79.6487 0 81.9141L0 85.7813C0 86.9002 0.444474 87.9732 1.23564 88.7644C2.02681 89.5556 3.09987 90 4.21875 90H23.9062C25.0251 90 26.0982 89.5556 26.8894 88.7644C27.6805 87.9732 28.125 86.9002 28.125 85.7813V81.9141C28.1188 79.6487 27.2375 77.4732 25.6652 75.8422C24.0929 74.2112 21.9512 73.2508 19.6875 73.1616ZM14.0625 56.25C15.3777 56.2555 16.665 56.6297 17.7782 57.3303C18.8914 58.0308 19.7857 59.0295 20.3597 60.2128L14.7825 58.6322C13.4515 58.2551 12.033 58.3303 10.7494 58.846L7.88063 60.0019C8.47269 58.8737 9.3611 57.9282 10.4503 57.2671C11.5396 56.6061 12.7884 56.2544 14.0625 56.25ZM7.03125 63.3066C7.14114 63.2989 7.24972 63.2781 7.35469 63.2447L11.8125 61.456C12.5148 61.1676 13.2941 61.126 14.0231 61.3378L20.9222 63.3066C20.9831 63.3107 21.0441 63.3107 21.105 63.3066C21.105 65.1714 20.3642 66.9598 19.0456 68.2784C17.727 69.5971 15.9386 70.3378 14.0738 70.3378C12.2089 70.3378 10.4205 69.5971 9.1019 68.2784C7.78329 66.9598 7.0425 65.1714 7.0425 63.3066H7.03125ZM16.875 72.6666V73.125C16.875 73.8709 16.5787 74.5863 16.0512 75.1138C15.5238 75.6412 14.8084 75.9375 14.0625 75.9375C13.3166 75.9375 12.6012 75.6412 12.0738 75.1138C11.5463 74.5863 11.25 73.8709 11.25 73.125V72.6666C12.1598 72.957 13.1075 73.1115 14.0625 73.125C15.0175 73.1115 15.9652 72.957 16.875 72.6666ZM25.3125 85.7813C25.3125 86.1542 25.1643 86.5119 24.9006 86.7757C24.6369 87.0394 24.2792 87.1875 23.9062 87.1875H4.21875C3.84579 87.1875 3.4881 87.0394 3.22438 86.7757C2.96066 86.5119 2.8125 86.1542 2.8125 85.7813V81.9141C2.81399 80.3295 3.44414 78.8102 4.56464 77.6897C5.68514 76.5692 7.20444 75.939 8.78906 75.9375H9.21938C9.71041 76.7985 10.4221 77.513 11.2812 78.0073C12.1402 78.5017 13.1156 78.7581 14.1067 78.75C15.0978 78.742 16.0688 78.4699 16.9198 77.9617C17.7707 77.4535 18.4708 76.7276 18.9478 75.8588C19.0727 75.9038 19.2034 75.9303 19.3359 75.9375C20.9206 75.939 22.4399 76.5692 23.5604 77.6897C24.6809 78.8102 25.311 80.3295 25.3125 81.9141V85.7813ZM56.655 82.0491C50.8782 84.436 44.508 84.9927 38.4047 83.6438L40.5928 81.8578C40.8819 81.6221 41.0654 81.2813 41.1031 80.9102C41.1409 80.5391 41.0296 80.1683 40.7939 79.8792C40.5582 79.5902 40.2173 79.4066 39.8463 79.3689C39.4752 79.3312 39.1044 79.4424 38.8153 79.6782L34.56 83.146C34.3872 83.2664 34.2447 83.4252 34.1437 83.61C34.1213 83.6466 34.1016 83.6775 34.0847 83.7169C34.0578 83.7595 34.0333 83.8036 34.0116 83.8491C34.001 83.9076 33.9944 83.9668 33.9919 84.0263C33.9695 84.125 33.9582 84.226 33.9581 84.3272C33.9598 84.379 33.9645 84.4307 33.9722 84.4819C33.9898 84.6323 34.0326 84.7788 34.0987 84.915C34.1362 85.0142 34.1853 85.1086 34.245 85.1963L37.7972 89.5585C37.9112 89.7089 38.0544 89.8349 38.2181 89.9289C38.3819 90.0228 38.5629 90.0828 38.7503 90.1053C38.9378 90.1278 39.1278 90.1124 39.3092 90.0599C39.4905 90.0073 39.6594 89.9188 39.8059 89.7996C39.9523 89.6804 40.0732 89.533 40.1614 89.366C40.2495 89.1991 40.3032 89.0161 40.3192 88.828C40.3351 88.6399 40.3131 88.4505 40.2542 88.2711C40.1954 88.0917 40.1011 87.9259 39.9769 87.7838L39.0206 86.611C45.3125 87.7969 51.814 87.1124 57.7209 84.6422C57.8916 84.5715 58.0466 84.4678 58.1772 84.3372C58.3078 84.2066 58.4113 84.0515 58.482 83.8808C58.5526 83.7101 58.589 83.5272 58.5889 83.3425C58.5889 83.1578 58.5525 82.9749 58.4817 82.8043C58.411 82.6336 58.3073 82.4786 58.1767 82.348C58.0461 82.2174 57.891 82.1138 57.7203 82.0432C57.5496 81.9726 57.3667 81.9362 57.182 81.9363C56.9973 81.9363 56.8144 81.9727 56.6437 82.0435L56.655 82.0491Z" fill="black"/>
</g>
<defs>
<clipPath id="clip0_49_607">
<rect width="90" height="90" fill="white"/>
</clipPath>
</defs>
</svg>
