<svg width="495" height="495" viewBox="0 0 495 495" fill="none" xmlns="http://www.w3.org/2000/svg">
<g clip-path="url(#clip0_26_131)">
<path opacity="0.18" d="M495.008 295.37C495.006 305.073 493.935 314.745 491.812 324.213C472.928 408.857 372.269 473.456 250.957 473.456C200.909 473.456 154.382 462.458 115.665 443.604C88.9478 430.595 65.9424 413.843 48.0678 394.367C40.4676 387.155 33.7791 379.039 28.1516 370.201C-23.1799 290.543 -3.93157 148.404 82.9137 149.588C93.2734 149.795 103.635 149.265 113.919 148.002C138.321 144.852 153.122 137.475 162.086 129.475C164.287 127.519 166.293 125.353 168.074 123.008C180.549 106.426 198.943 95.2972 219.421 91.942C400.565 62.9253 466.53 153.232 486.977 229.322C492.532 249.839 495.212 271.028 494.939 292.281C494.993 293.306 495.008 294.338 495.008 295.37Z" fill="#34ABEF"/>
<path opacity="0.05" d="M130.382 410.914L33.7302 378.277C33.7302 378.277 -1.83676 334.156 0.144237 259.955L143.976 318.831C143.976 318.831 206.518 300.858 243.777 299.059C281.037 297.26 446.219 279.917 446.219 279.917C446.219 279.917 478.097 316.463 463.919 327.643C449.741 338.824 347.692 340.706 347.692 340.706L276.726 299.112L217.037 345.229L171.558 388.144L130.382 410.914Z" fill="#000405"/>
<path d="M288.831 247.075L287.313 250.931C287.313 250.931 291.868 254.961 288.831 256.692C288.831 256.692 304.634 255.712 288.831 247.075Z" fill="#3F3D56"/>
<path d="M108.219 371.939L106.382 377.146L121.463 384.197C121.463 384.197 135.46 385.958 139.763 382.269C142.374 379.968 144.281 376.977 145.266 373.639L108.219 371.939Z" fill="#333333"/>
<path d="M147.71 323.089C147.71 323.089 165.455 322.778 170.647 329.222C175.839 335.666 157.182 354.747 157.182 354.747L114.154 357.783L147.71 323.089Z" fill="#34ABEF"/>
<path d="M147.71 323.089C147.71 323.089 165.455 322.778 170.647 329.222C175.839 335.666 157.182 354.747 157.182 354.747L114.154 357.783L147.71 323.089Z" fill="url(#paint0_linear_26_131)"/>
<path d="M147.072 350.755C147.072 350.755 184.355 354.117 190.836 356.508C203.087 361.115 199.444 378.33 193.91 380.166C189.288 381.722 154.131 394.588 142.89 398.709C141.958 399.046 140.933 399.012 140.025 398.615C139.117 398.219 138.396 397.489 138.01 396.576L134.116 387.385C133.902 386.882 133.797 386.339 133.807 385.793C133.817 385.246 133.943 384.708 134.176 384.213C134.409 383.719 134.744 383.279 135.159 382.923C135.573 382.567 136.059 382.303 136.583 382.147L158.7 375.567C158.7 375.567 125.866 378.876 119.232 377.404C104.545 374.186 90.0634 355.393 97.7749 338.983C105.486 322.573 147.072 350.755 147.072 350.755Z" fill="#34ABEF"/>
<path d="M147.072 350.755C147.072 350.755 184.355 354.117 190.836 356.508C203.087 361.115 199.444 378.33 193.91 380.166C189.288 381.722 154.131 394.588 142.89 398.709C141.958 399.046 140.933 399.012 140.025 398.615C139.117 398.219 138.396 397.489 138.01 396.576L134.116 387.385C133.902 386.882 133.797 386.339 133.807 385.793C133.817 385.246 133.943 384.708 134.176 384.213C134.409 383.719 134.744 383.279 135.159 382.923C135.573 382.567 136.059 382.303 136.583 382.147L158.7 375.567C158.7 375.567 125.866 378.876 119.232 377.404C104.545 374.186 90.0634 355.393 97.7749 338.983C105.486 322.573 147.072 350.755 147.072 350.755Z" fill="url(#paint1_linear_26_131)"/>
<path d="M244.468 257.982L242.745 264.722L251.58 272.547C251.58 272.547 249.052 272.547 247.026 276.494L246.221 285.124C246.221 285.124 252.157 297.966 268.536 286.74L295.101 310.224L354.023 289.473L355.282 281.443L244.468 257.982Z" fill="#3F3D56"/>
<path d="M404.208 264.426L374.895 252.912C373.087 251.898 371.06 251.337 368.987 251.277C366.915 251.216 364.859 251.657 362.994 252.563C361.342 253.343 359.935 254.56 358.925 256.083C357.915 257.605 357.34 259.375 357.263 261.2C356.254 272.281 362.22 323.287 362.22 323.287C364.42 324.138 366.713 324.727 369.051 325.04C371.102 325.449 373.217 325.404 375.249 324.907C377.28 324.41 379.178 323.473 380.808 322.163L381.377 283.796C381.377 283.796 414.417 304.205 426.204 302.505C439.395 300.608 460.617 289.784 446.28 264.684C431.942 239.584 404.208 264.426 404.208 264.426Z" fill="#34ABEF"/>
<path d="M404.208 264.426L374.895 252.912C373.087 251.898 371.06 251.337 368.987 251.277C366.915 251.216 364.859 251.657 362.994 252.563C361.342 253.343 359.935 254.56 358.925 256.083C357.915 257.605 357.34 259.375 357.263 261.2C356.254 272.281 362.22 323.287 362.22 323.287C364.42 324.138 366.713 324.727 369.051 325.04C371.102 325.449 373.217 325.404 375.249 324.907C377.28 324.41 379.178 323.473 380.808 322.163L381.377 283.796C381.377 283.796 414.417 304.205 426.204 302.505C439.395 300.608 460.617 289.784 446.28 264.684C431.942 239.584 404.208 264.426 404.208 264.426Z" fill="url(#paint2_linear_26_131)"/>
<path d="M379.92 196.935C379.92 196.935 371.313 224.335 368.99 230.21C366.668 236.085 325.97 240.973 325.97 240.973L327.488 258.559L373.833 252.806L387.768 232.654L379.92 196.935Z" fill="#34ABEF"/>
<path opacity="0.61" d="M379.92 196.935C379.92 196.935 371.313 224.335 368.99 230.21C366.668 236.085 325.97 240.973 325.97 240.973L327.488 258.559L373.833 252.806L387.768 232.654L379.92 196.935Z" fill="url(#paint3_linear_26_131)"/>
<path d="M403.1 187.842L412.534 193.079C430.06 200.905 436.45 218.324 446.257 264.805C446.257 264.805 437.968 283.34 407.456 270.877C407.456 270.877 386.751 240.623 383.335 229.284C379.92 217.944 371.32 198.43 387.13 190.969C402.94 183.508 403.1 187.842 403.1 187.842Z" fill="#34ABEF"/>
<path opacity="0.05" d="M423.327 227.751L434.818 271.113C434.818 271.113 423.092 278.262 407.418 270.855C391.745 263.447 397.293 256.077 392.238 247.075L407.593 238.726L423.327 227.751Z" fill="#000405"/>
<path d="M401.772 185.968C401.164 187.282 400.296 188.459 399.221 189.428C398.145 190.397 396.885 191.138 395.515 191.607C394.145 192.075 392.694 192.26 391.25 192.152C389.807 192.044 388.4 191.644 387.115 190.977C387.115 190.977 378.25 206.438 390.91 204.593C397.62 203.614 403.494 193.626 404.618 188.563L401.772 185.968Z" fill="#333333"/>
<path d="M402.341 173.565C402.341 173.74 401.938 181.368 401.627 186.863C401.4 191.115 399.575 195.124 396.519 198.089C394.748 199.929 392.619 201.388 390.265 202.377C389.697 202.589 389.081 202.639 388.487 202.522C387.892 202.406 387.341 202.127 386.895 201.717C386.447 201.305 386.121 200.777 385.952 200.192C385.784 199.607 385.779 198.987 385.938 198.4C386.242 197.254 386.546 195.933 386.789 194.552C387.29 191.683 387.548 188.579 386.735 186.385C386.712 186.303 386.684 186.221 386.652 186.142C386.197 185.011 386.652 183.774 387.722 182.529C389.195 180.784 391.775 179.015 394.356 177.52C396.941 176.052 399.607 174.732 402.341 173.565Z" fill="url(#paint4_linear_26_131)"/>
<path d="M388.481 193.967C387.955 194.233 387.396 194.429 386.819 194.552C387.32 191.683 387.578 188.578 386.766 186.385L387.753 182.529L388.512 179.66L394.417 177.52L400.39 175.357C398.902 185.967 393.233 191.743 388.481 193.967Z" fill="url(#paint5_linear_26_131)"/>
<path d="M386.971 143.342C384.636 143.477 382.355 144.094 380.27 145.153C378.185 146.212 376.341 147.691 374.855 149.496C373.368 151.301 372.27 153.394 371.631 155.643C370.991 157.893 370.824 160.25 371.138 162.567C371.67 169.456 373.439 176.192 376.36 182.453C381.893 191.895 395.859 184.123 398.068 180.237C400.276 176.351 408.625 158.765 405.126 153.763C402.834 150.363 396.033 142.985 386.971 143.342Z" fill="url(#paint6_linear_26_131)"/>
<path d="M372.231 136.663L375.1 138.135C373.388 138.095 371.691 138.464 370.15 139.209C368.608 139.955 367.266 141.057 366.235 142.423C363.613 145.043 362.12 148.584 362.075 152.29L366.956 150.013C366.956 150.013 366.584 156.025 375.813 156.488C385.043 156.951 394.826 157.323 394.826 157.323L391.715 152.981C391.715 152.981 397.445 155.258 398.454 157.414C399.36 160.817 400.009 164.282 400.398 167.782C400.398 167.782 402.675 161.846 403.639 163.144C404.602 164.442 402.637 169.823 401.43 171C400.223 172.176 400.428 175.721 400.314 176.009C400.2 176.298 406.052 171.455 406.31 169.793C406.568 168.131 412.382 151.289 408.587 147.782L410.864 147.615C409.501 146.688 407.943 146.085 406.31 145.854C406.31 145.854 391.214 125.9 372.231 136.663Z" fill="#333333"/>
<path d="M325.917 243.174C322.995 242.661 320.123 241.9 317.332 240.897C312.86 239.737 308.283 239.022 303.67 238.764C303.67 238.764 302.782 241.8 305.188 242.422C307.594 243.045 310.349 244.062 310.349 244.062L300.315 245.071L291.025 246.339C291.025 246.339 291.913 249.375 294.41 249.375C295.135 250.681 296.107 251.833 297.272 252.768C299.038 254.366 300.678 256.099 302.175 257.952C303.436 258.947 304.779 259.833 306.19 260.6C306.706 260.6 326.266 258.323 327.442 256.456L325.917 243.174Z" fill="url(#paint7_linear_26_131)"/>
<path d="M407.509 270.877C407.509 270.877 410.545 285.989 415.046 289.792C415.046 289.792 385.536 312.82 384.162 329.48C382.242 352.508 454.856 316.797 454.856 316.797L449.831 304.076L418.348 318.034C418.348 318.034 437.505 305.086 447.023 292.129C454.507 281.853 450.439 272.395 446.264 265.048C446.219 264.805 428.147 279.743 407.509 270.877Z" fill="#34ABEF"/>
<path d="M407.509 270.877C407.509 270.877 410.545 285.989 415.046 289.792C415.046 289.792 385.536 312.82 384.162 329.48C382.242 352.508 454.856 316.797 454.856 316.797L449.832 304.076L418.348 318.034C418.348 318.034 437.505 305.086 447.023 292.129C454.507 281.853 450.439 272.395 446.264 265.048C446.219 264.805 428.147 279.743 407.509 270.877Z" fill="url(#paint8_linear_26_131)"/>
<path d="M449.748 304.069L455.198 302.194L457.892 309.336L451.873 313.45L449.748 304.069Z" fill="url(#paint9_linear_26_131)"/>
<path d="M369.62 328.182L369.104 325.017C371.156 325.349 373.255 325.265 375.274 324.771C377.294 324.277 379.193 323.382 380.861 322.141L381.18 327.324C379.467 328.393 377.519 329.03 375.506 329.179C373.492 329.328 371.472 328.986 369.62 328.182Z" fill="url(#paint10_linear_26_131)"/>
<path d="M369.506 327.211L356.603 331.871C356.603 331.871 349.43 330.118 347.996 334.148C347.055 336.216 346.963 338.57 347.738 340.706C347.738 340.706 351.123 343.742 359.556 341.973C367.988 340.205 381.779 335.901 381.779 335.901L381.263 327.469C379.41 328.313 377.391 328.729 375.355 328.684C373.319 328.64 371.32 328.136 369.506 327.211ZM456.23 300.554C456.23 300.554 452.989 301.883 453.361 302.74C453.733 303.598 454.879 301.708 457.778 309.366L455.919 310.725L459.926 319.355C458.864 320.155 458.021 321.21 457.476 322.423C456.931 323.636 456.7 324.967 456.807 326.292C457.209 328.395 460.936 328.683 463.919 327.651C466.902 326.619 468.192 319.992 468.192 319.992C468.192 319.992 466.241 304.107 462.226 301.458C458.211 298.809 456.23 300.554 456.23 300.554Z" fill="#333333"/>
<path d="M358.926 284.41L298.008 303.606L270.077 280.41C258.805 291.917 245.272 283.287 247.132 276.547C248.991 269.807 261.477 272.259 261.477 272.259L244.551 258.043L276.217 250.073C276.414 251.189 277.735 256.6 285.424 257.033C294.023 257.526 295.974 250.528 288.832 247.105L308.907 241.899L358.926 284.41Z" fill="#34ABEF"/>
<path opacity="0.05" d="M342.653 276.873C342.237 276.987 341.844 277.172 341.491 277.42C341.167 277.732 340.877 278.078 340.626 278.452C339.503 279.849 337.674 280.403 336.011 281.063C334.133 281.805 332.349 282.768 330.698 283.932C330.45 284.073 330.255 284.292 330.144 284.555C329.894 285.367 331.154 285.769 331.579 286.505C331.704 286.782 331.746 287.089 331.701 287.39C331.655 287.69 331.523 287.971 331.321 288.198C330.911 288.644 330.426 289.015 329.886 289.291C326.995 291.055 324.47 293.359 322.448 296.076C331.631 291.299 341.203 287.313 351.062 284.16C351.831 283.97 352.551 283.623 353.18 283.143C353.492 282.899 353.721 282.565 353.837 282.186C353.952 281.807 353.948 281.402 353.825 281.025C353.658 280.653 354.243 280.555 353.939 280.266C352.459 278.945 349.97 276.737 347.989 275.12C348.019 275.135 344.209 276.357 342.653 276.873Z" fill="#000405"/>
<path d="M423.593 201.284C422.511 200.01 421.108 199.05 419.529 198.501C417.951 197.953 416.254 197.838 414.616 198.167C412.978 198.496 411.457 199.258 410.213 200.374C408.969 201.489 408.046 202.917 407.54 204.51C406.993 206.263 406.417 208.366 405.847 210.954C402.811 224.942 389.066 255.363 389.066 255.363L349.15 276.927L360.072 290.915L406.788 267.887C406.788 267.887 427.494 222.149 427.122 213.428C427.259 209.109 426.023 204.858 423.593 201.284Z" fill="#34ABEF"/>
<path opacity="0.61" d="M423.593 201.284C422.511 200.01 421.108 199.05 419.529 198.501C417.951 197.953 416.254 197.838 414.616 198.167C412.978 198.496 411.457 199.258 410.213 200.374C408.969 201.489 408.046 202.917 407.54 204.51C406.993 206.263 406.417 208.366 405.847 210.954C402.811 224.942 389.066 255.363 389.066 255.363L349.15 276.927L360.072 290.915L406.788 267.887C406.788 267.887 427.494 222.149 427.122 213.428C427.259 209.109 426.023 204.858 423.593 201.284Z" fill="url(#paint11_linear_26_131)"/>
<path d="M352.558 278.885C349.673 279.661 346.728 280.189 343.753 280.464C339.204 281.288 334.747 282.56 330.448 284.259C330.448 284.259 330.903 287.37 333.317 286.938C335.73 286.505 338.675 286.308 338.675 286.308L330.076 291.461L322.159 296.524C322.159 296.524 324.224 298.915 326.486 297.845C327.698 298.729 329.073 299.366 330.531 299.719C332.793 300.423 334.998 301.299 337.127 302.338C338.69 302.714 340.282 302.955 341.886 303.059C342.349 302.854 359.298 292.494 359.411 290.338L352.558 278.885Z" fill="url(#paint12_linear_26_131)"/>
<path d="M219.17 273.329L233.743 279.082V287.72C233.743 287.72 216.286 288.091 216.286 295.659C216.286 303.226 232.749 309.161 243.785 299.059L268.908 313.48L267.997 320.873L191.611 348.508L147.846 295.112V286.482L219.17 273.329Z" fill="#3F3D56"/>
<path d="M219.17 264.805L233.743 279.052C233.743 279.052 216.286 279.431 216.286 286.999C216.286 294.566 232.749 300.501 243.785 290.391L268.908 313.42L192.415 340.395L147.846 286.627L177.873 277.443C177.873 277.443 168.324 271.022 177.501 266.733C179.196 265.901 181.036 265.404 182.92 265.268C190.123 264.98 191.269 268.691 192.218 272.752V273.071L219.17 264.805Z" fill="#34ABEF"/>
<path opacity="0.05" d="M159.983 282.915C159.983 282.915 172.127 309.313 177.903 313.693C181.121 316.137 203.368 323.393 222.259 324.418C224.028 324.516 229.553 319.393 232.164 320.068C235.959 321.063 231.474 324.471 232.354 324.516C243.739 325.055 250.046 320.068 250.046 320.068L190.085 341.715L149.911 284.107L159.983 282.915Z" fill="#000405"/>
<path d="M218.487 330.171C220.521 327.51 222.848 325.086 225.424 322.945C227.531 321.687 229.799 320.719 232.164 320.068C232.164 320.068 233.227 323.294 231.405 323.901C229.584 324.509 228.536 327.696 228.536 327.696C228.536 327.696 241.789 330.231 243.39 329.45C244.992 328.668 245.143 331.15 242.016 331.613C238.889 332.076 238.98 336.562 236.855 336.926C234.73 337.29 231.58 339.317 228.453 340.068C224.829 340.381 221.179 340.213 217.599 339.567L218.487 330.171Z" fill="url(#paint13_linear_26_131)"/>
<path d="M157.683 291.864C159.401 282.518 158.26 272.87 154.407 264.183C150.554 255.496 144.17 248.174 136.089 243.174C133.212 241.202 129.914 239.931 126.458 239.462C112.575 238.658 97.7749 338.968 97.7749 338.968C97.7749 338.968 104.462 358.398 124.704 360.265C143.406 361.996 147.049 350.74 147.049 350.74L157.683 291.864Z" fill="#34ABEF"/>
<path opacity="0.61" d="M157.683 291.864C159.401 282.518 158.26 272.87 154.407 264.183C150.554 255.496 144.17 248.174 136.089 243.174C133.212 241.202 129.914 239.931 126.458 239.462C112.575 238.658 97.7749 338.968 97.7749 338.968C97.7749 338.968 104.462 358.398 124.704 360.265C143.406 361.996 147.049 350.74 147.049 350.74L157.683 291.864Z" fill="url(#paint14_linear_26_131)"/>
<path d="M126.458 239.447C126.458 239.447 128.492 224.312 129.327 214.468C130.162 204.624 133.395 191.44 149.919 193.163C166.442 194.886 166.435 219.88 161.843 230.354C157.251 240.828 151.148 240.487 151.148 240.487C151.148 240.487 142.921 238.673 143.201 248.578L126.458 239.447Z" fill="url(#paint15_linear_26_131)"/>
<path d="M132.704 191.038C130.297 193.345 128.554 196.258 127.657 199.47C126.913 202.076 126.405 204.743 126.139 207.44L127.832 205.603C127.736 210.224 127.381 214.836 126.769 219.417C126.144 223.688 125.89 228.005 126.01 232.32L129.084 232.176L132.879 236.927L137.152 234.043L140.363 232.35L143.232 225.292C142.533 224.779 142.021 224.053 141.773 223.222C141.525 222.392 141.555 221.504 141.858 220.692C142.921 217.815 145.524 217.147 146.131 218.848C146.596 220.965 146.85 223.124 146.89 225.292L151.444 212.388C151.444 212.388 154.313 208.381 156.81 211.151C158.307 212.821 160.199 214.087 162.313 214.832L160.795 210.514L164.924 211.576L164.605 206.658L167.679 208.814C167.679 208.814 169.053 200.844 166.442 197.299C163.831 193.755 153.532 179.668 132.704 191.038Z" fill="#333333"/>
<path d="M218.912 327.613L185.106 323.955C180.537 323.077 176.358 320.789 173.157 317.413C169.956 314.036 167.894 309.741 167.262 305.131L154.761 266.991C154.006 264.598 152.595 262.464 150.689 260.831C148.782 259.199 146.457 258.133 143.976 257.754C142.018 257.461 140.019 257.67 138.164 258.361C136.309 259.051 134.66 260.201 133.371 261.703C132.082 263.204 131.195 265.008 130.793 266.946C130.391 268.884 130.487 270.892 131.073 272.783L143.976 318.831C144.584 323.887 146.91 328.58 150.565 332.127C154.219 335.673 158.98 337.858 164.051 338.315L217.053 345.23L218.912 327.613Z" fill="#34ABEF"/>
<path opacity="0.61" d="M218.912 327.613L185.106 323.955C180.537 323.077 176.358 320.789 173.157 317.413C169.956 314.036 167.894 309.741 167.262 305.131L154.761 266.991C154.006 264.598 152.595 262.464 150.689 260.831C148.782 259.199 146.457 258.133 143.976 257.754C142.018 257.461 140.019 257.67 138.164 258.361C136.309 259.051 134.66 260.201 133.371 261.703C132.082 263.204 131.195 265.008 130.793 266.946C130.391 268.884 130.487 270.892 131.073 272.783L143.976 318.831C144.584 323.887 146.91 328.58 150.565 332.127C154.219 335.673 158.98 337.858 164.051 338.315L217.053 345.23L218.912 327.613Z" fill="url(#paint16_linear_26_131)"/>
<path d="M135.46 383.589L125.509 385.866L129.494 397.381L139.907 394.975C139.907 394.975 142.663 386.071 135.46 383.589Z" fill="url(#paint17_linear_26_131)"/>
<path d="M121.464 384.197C121.464 384.197 127.976 382.815 129.054 385.032C130.131 387.248 126.67 387.104 127.361 390.246C127.94 392.636 128.657 394.99 129.509 397.297L132.72 396.576L133.38 400.371C133.52 401.024 133.883 401.608 134.407 402.023C134.93 402.439 135.581 402.66 136.249 402.648C143.763 403.081 142.761 409.897 140.12 410.155L130.397 410.876L125.266 406.587C124.651 406.16 124.165 405.572 123.862 404.887C121.957 401.206 116.196 387.506 121.464 384.197Z" fill="#333333"/>
<path opacity="0.4" d="M279.625 149.475C279.127 150.193 278.696 150.955 278.334 151.752C276.156 156.412 268.786 173.08 267.708 187.523C267.494 191.038 265.997 194.352 263.501 196.835C261.005 199.319 257.684 200.799 254.168 200.996L241.007 201.755L236.703 201.982C233.246 202.187 229.832 201.134 227.09 199.017C224.349 196.901 222.466 193.865 221.789 190.468C219.094 177.171 213.356 156.852 202.206 147.873C202.206 147.873 153.046 102.856 185.827 52.6559C188.031 49.2641 190.495 46.0489 193.197 43.0393C227.603 4.95247 284.391 22.3033 298.038 57.6805C311.685 93.0577 285.052 141.847 279.625 149.475Z" fill="#34ABEF"/>
<path d="M269.591 207.212C268.445 210.089 267.124 211.47 268.27 213.375C269.416 215.28 272.718 220.404 255.967 222.681C252.497 223.16 249.002 223.438 245.5 223.515H240.02L236.809 223.371C233.143 223.144 230.183 222.772 228.21 222.453C227.137 222.296 226.11 221.914 225.194 221.334C224.279 220.753 223.496 219.986 222.897 219.083C222.603 218.404 222.505 217.656 222.612 216.925C222.719 216.193 223.028 215.505 223.504 214.939C223.778 214.684 223.982 214.364 224.099 214.009C224.216 213.654 224.241 213.275 224.172 212.908C224.103 212.541 223.942 212.197 223.705 211.908C223.467 211.62 223.161 211.396 222.813 211.257C221.908 210.406 221.371 209.234 221.317 207.992C221.263 206.75 221.696 205.536 222.525 204.609C222.938 204.186 223.279 203.699 223.534 203.167C223.893 202.346 224.021 201.443 223.904 200.555C223.788 199.667 223.432 198.827 222.874 198.127L222.411 197.557C221.772 196.693 221.305 195.714 221.037 194.673C220.758 193.958 220.675 193.182 220.796 192.424C220.918 191.666 221.239 190.954 221.728 190.362C222.405 193.756 224.288 196.791 227.027 198.906C229.767 201.021 233.18 202.073 236.635 201.869L240.938 201.611C241.058 201.442 241.155 201.258 241.227 201.064C241.986 199.227 240.278 197.094 241.143 194.233L244.377 194.089C252.327 193.614 260.178 192.082 267.724 189.535C268.548 190.217 269.112 191.162 269.321 192.211C269.529 193.261 269.37 194.35 268.87 195.296C268.572 195.933 268.37 196.611 268.27 197.307C268.073 198.766 268.322 200.25 268.984 201.565C269.059 201.725 269.145 201.88 269.242 202.028C269.701 202.805 269.972 203.678 270.033 204.578C270.094 205.479 269.942 206.381 269.591 207.212Z" fill="#34ABEF"/>
<path d="M221.758 190.347C236.773 186.456 252.494 186.17 267.64 189.512C267.64 189.512 242.775 199.698 221.758 190.347Z" fill="#333333"/>
<path d="M243.777 223.242C242.528 223.489 241.253 223.575 239.982 223.5L236.764 223.356C233.098 223.128 230.145 222.756 228.164 222.438C227.092 222.281 226.064 221.9 225.148 221.319C224.233 220.738 223.45 219.971 222.851 219.068C222.556 218.389 222.456 217.642 222.562 216.91C222.667 216.178 222.975 215.49 223.451 214.924C223.724 214.668 223.928 214.347 224.045 213.992C224.161 213.636 224.187 213.257 224.119 212.889C224.05 212.522 223.889 212.179 223.652 211.891C223.414 211.603 223.107 211.38 222.76 211.242C221.854 210.391 221.317 209.218 221.264 207.975C221.212 206.732 221.648 205.519 222.479 204.593C223.325 203.747 223.828 202.617 223.891 201.422C223.954 200.227 223.573 199.05 222.821 198.119C221.977 197.125 221.37 195.952 221.045 194.688C220.766 193.974 220.683 193.198 220.803 192.44C220.923 191.683 221.242 190.971 221.728 190.377C228.922 193.132 236.604 194.385 244.301 194.058L244.673 194.233C244.673 194.233 241.804 195.326 242.547 197.831C243.291 200.335 244.384 204.852 241.917 207.789C239.451 210.726 244.194 211.531 243.299 214.84V215.159C242.936 216.146 242.657 217.161 242.464 218.195C241.948 220.798 242.191 223.015 243.777 223.242Z" fill="url(#paint18_linear_26_131)"/>
<path opacity="0.49" d="M244.354 194.028C236.649 194.362 228.958 193.109 221.758 190.347C219.087 177.133 213.349 156.814 202.199 147.843C202.199 147.843 153.038 102.826 185.819 52.6255C188.023 49.2337 190.487 46.0185 193.189 43.0089L197.607 42.6067C197.607 42.6067 227.011 27.1154 239.481 44.0715C251.952 61.0277 224.734 80.1926 223.307 111.16C221.88 142.127 257.318 147.858 244.354 194.028Z" fill="white"/>
<path d="M265.72 215.182C263.595 216.563 255.967 219.159 242.373 218.218C236.001 217.711 229.692 216.593 223.534 214.878C223.808 214.623 224.013 214.304 224.129 213.948C224.246 213.593 224.271 213.215 224.202 212.847C224.133 212.48 223.973 212.136 223.735 211.847C223.498 211.559 223.191 211.335 222.844 211.197C229.445 213.461 236.36 214.675 243.337 214.794C251.17 215.014 258.99 214.044 266.532 211.918C266.532 211.918 268.9 213.109 265.72 215.182Z" fill="url(#paint19_linear_26_131)"/>
<path d="M268.961 201.595C266.411 203.728 256.771 207.667 242.836 206.316C236.292 206.079 229.806 205.005 223.534 203.121C223.893 202.302 224.021 201.4 223.905 200.513C223.788 199.626 223.432 198.788 222.874 198.089L222.411 197.512C223.33 197.861 224.878 198.347 226.965 198.893C231.668 200.083 236.47 200.845 241.31 201.17H243.542C251.97 201.51 260.382 200.179 268.293 197.254C268.062 198.735 268.296 200.252 268.961 201.595Z" fill="url(#paint20_linear_26_131)"/>
<path d="M173.516 271.113L173.691 278.703L177.903 277.405C177.903 277.405 173.516 274.361 173.516 271.113Z" fill="#3F3D56"/>
<path d="M265.849 117.278L264.931 116.655C266.314 112.47 266.803 108.04 266.365 103.653C265.272 94.3633 258.714 88.6935 247.921 87.7144C231.375 86.1432 224.825 94.682 222.396 99.904C215.383 114.5 221.728 138.135 231.838 148.738C244.301 161.748 239.489 186.279 237.728 193.52C237.671 193.697 237.632 193.88 237.614 194.066V194.552L240.157 195.417L240.339 194.704C241.845 188.907 242.721 182.965 242.95 176.981C243.398 164.078 240.308 153.642 233.986 146.81C224.65 137.027 218.586 114.439 225.03 101.073C228.939 93.0654 236.825 89.3766 247.853 90.4013C259.853 91.5398 263.17 98.4239 263.838 103.972C264.176 107.775 263.75 111.607 262.585 115.243C259.906 113.891 256.83 113.547 253.917 114.272C248.232 115.835 244.642 121.725 242.631 126.37C242.128 127.525 241.973 128.802 242.185 130.043C242.396 131.285 242.966 132.438 243.823 133.361C244.66 134.263 245.739 134.905 246.932 135.211C248.124 135.516 249.379 135.472 250.547 135.084C255.671 133.27 261.014 126.985 264.02 119.319L264.316 119.524C272.665 125.399 266.707 134.454 259.853 144.951C254.972 152.306 248.916 161.459 248.263 170.476C247.504 178.552 247.853 184.935 248.399 193.064L248.437 193.709H251.17L251.132 192.95C250.601 184.837 250.282 178.529 250.995 170.681C251.58 162.423 257.158 153.93 262.077 146.393L262.297 146.051C269.439 135.099 276.179 124.701 265.849 117.278ZM249.576 132.458C248.916 132.684 248.203 132.71 247.528 132.533C246.853 132.357 246.245 131.984 245.781 131.463C245.281 130.931 244.95 130.264 244.828 129.544C244.706 128.824 244.8 128.085 245.098 127.418C246.54 124.071 249.697 118.234 254.608 116.868C255.311 116.676 256.035 116.579 256.764 116.579C258.44 116.636 260.082 117.061 261.576 117.824C258.714 125.057 253.849 131.031 249.576 132.473V132.458Z" fill="white"/>
</g>
<defs>
<linearGradient id="paint0_linear_26_131" x1="114.154" y1="340.448" x2="171.558" y2="340.448" gradientUnits="userSpaceOnUse">
<stop stop-color="#34ABEF" stop-opacity="0"/>
<stop offset="0.02" stop-color="#4FB5EA" stop-opacity="0.04"/>
<stop offset="0.18" stop-color="#58A1BC" stop-opacity="0.39"/>
<stop offset="0.35" stop-color="#4D758F" stop-opacity="0.66"/>
<stop offset="0.53" stop-color="#45566F" stop-opacity="0.85"/>
<stop offset="0.73" stop-color="#40435C" stop-opacity="0.96"/>
<stop offset="0.99" stop-color="#3F3D56"/>
</linearGradient>
<linearGradient id="paint1_linear_26_131" x1="194.085" y1="304.615" x2="126.48" y2="381.874" gradientUnits="userSpaceOnUse">
<stop offset="0.11" stop-color="#34ABEF" stop-opacity="0"/>
<stop offset="0.13" stop-color="#4FB5EA" stop-opacity="0.04"/>
<stop offset="0.27" stop-color="#58A1BC" stop-opacity="0.39"/>
<stop offset="0.42" stop-color="#4D758F" stop-opacity="0.66"/>
<stop offset="0.58" stop-color="#45566F" stop-opacity="0.85"/>
<stop offset="0.76" stop-color="#40435C" stop-opacity="0.96"/>
<stop offset="0.99" stop-color="#3F3D56"/>
</linearGradient>
<linearGradient id="paint2_linear_26_131" x1="315.609" y1="269.853" x2="424.61" y2="294.983" gradientUnits="userSpaceOnUse">
<stop stop-color="#34ABEF" stop-opacity="0"/>
<stop offset="0.02" stop-color="#4FB5EA" stop-opacity="0.04"/>
<stop offset="0.18" stop-color="#58A1BC" stop-opacity="0.39"/>
<stop offset="0.35" stop-color="#4D758F" stop-opacity="0.66"/>
<stop offset="0.53" stop-color="#45566F" stop-opacity="0.85"/>
<stop offset="0.73" stop-color="#40435C" stop-opacity="0.96"/>
<stop offset="0.99" stop-color="#3F3D56"/>
</linearGradient>
<linearGradient id="paint3_linear_26_131" x1="403.859" y1="256.95" x2="358.053" y2="230.286" gradientUnits="userSpaceOnUse">
<stop offset="0.36" stop-color="#00272E"/>
<stop offset="1" stop-color="#69B9EB" stop-opacity="0"/>
</linearGradient>
<linearGradient id="paint4_linear_26_131" x1="385.855" y1="188.078" x2="402.371" y2="188.078" gradientUnits="userSpaceOnUse">
<stop stop-color="#ECC4D7"/>
<stop offset="0.42" stop-color="#EFD4D1"/>
<stop offset="1" stop-color="#F2EAC9"/>
</linearGradient>
<linearGradient id="paint5_linear_26_131" x1="396.701" y1="176.1" x2="367.578" y2="224.555" gradientUnits="userSpaceOnUse">
<stop stop-color="#ECC4D7"/>
<stop offset="0.42" stop-color="#EFD4D1"/>
<stop offset="1" stop-color="#F2EAC9"/>
</linearGradient>
<linearGradient id="paint6_linear_26_131" x1="370.986" y1="165.156" x2="405.969" y2="165.156" gradientUnits="userSpaceOnUse">
<stop stop-color="#ECC4D7"/>
<stop offset="0.42" stop-color="#EFD4D1"/>
<stop offset="1" stop-color="#F2EAC9"/>
</linearGradient>
<linearGradient id="paint7_linear_26_131" x1="290.987" y1="249.663" x2="327.381" y2="249.663" gradientUnits="userSpaceOnUse">
<stop stop-color="#ECC4D7"/>
<stop offset="0.42" stop-color="#EFD4D1"/>
<stop offset="1" stop-color="#F2EAC9"/>
</linearGradient>
<linearGradient id="paint8_linear_26_131" x1="385.149" y1="285.359" x2="454.719" y2="318.596" gradientUnits="userSpaceOnUse">
<stop stop-color="#34ABEF" stop-opacity="0"/>
<stop offset="0.02" stop-color="#4FB5EA" stop-opacity="0.04"/>
<stop offset="0.18" stop-color="#58A1BC" stop-opacity="0.39"/>
<stop offset="0.35" stop-color="#4D758F" stop-opacity="0.66"/>
<stop offset="0.53" stop-color="#45566F" stop-opacity="0.85"/>
<stop offset="0.73" stop-color="#40435C" stop-opacity="0.96"/>
<stop offset="0.99" stop-color="#3F3D56"/>
</linearGradient>
<linearGradient id="paint9_linear_26_131" x1="449.748" y1="307.826" x2="457.892" y2="307.826" gradientUnits="userSpaceOnUse">
<stop stop-color="#ECC4D7"/>
<stop offset="0.42" stop-color="#EFD4D1"/>
<stop offset="1" stop-color="#F2EAC9"/>
</linearGradient>
<linearGradient id="paint10_linear_26_131" x1="369.104" y1="325.708" x2="381.18" y2="325.708" gradientUnits="userSpaceOnUse">
<stop stop-color="#ECC4D7"/>
<stop offset="0.42" stop-color="#EFD4D1"/>
<stop offset="1" stop-color="#F2EAC9"/>
</linearGradient>
<linearGradient id="paint11_linear_26_131" x1="458.272" y1="280.084" x2="374.204" y2="236.601" gradientUnits="userSpaceOnUse">
<stop offset="0.36" stop-color="#00272E"/>
<stop offset="1" stop-color="#69B9EB" stop-opacity="0"/>
</linearGradient>
<linearGradient id="paint12_linear_26_131" x1="322.159" y1="290.983" x2="359.411" y2="290.983" gradientUnits="userSpaceOnUse">
<stop stop-color="#ECC4D7"/>
<stop offset="0.42" stop-color="#EFD4D1"/>
<stop offset="1" stop-color="#F2EAC9"/>
</linearGradient>
<linearGradient id="paint13_linear_26_131" x1="217.599" y1="330.163" x2="244.498" y2="330.163" gradientUnits="userSpaceOnUse">
<stop stop-color="#ECC4D7"/>
<stop offset="0.42" stop-color="#EFD4D1"/>
<stop offset="1" stop-color="#F2EAC9"/>
</linearGradient>
<linearGradient id="paint14_linear_26_131" x1="77.8055" y1="294.103" x2="140.423" y2="301.64" gradientUnits="userSpaceOnUse">
<stop offset="0.36" stop-color="#00272E"/>
<stop offset="1" stop-color="#69B9EB" stop-opacity="0"/>
</linearGradient>
<linearGradient id="paint15_linear_26_131" x1="126.458" y1="220.775" x2="164.469" y2="220.775" gradientUnits="userSpaceOnUse">
<stop stop-color="#ECC4D7"/>
<stop offset="0.42" stop-color="#EFD4D1"/>
<stop offset="1" stop-color="#F2EAC9"/>
</linearGradient>
<linearGradient id="paint16_linear_26_131" x1="105.509" y1="352" x2="183.975" y2="297.116" gradientUnits="userSpaceOnUse">
<stop offset="0.36" stop-color="#00272E"/>
<stop offset="1" stop-color="#69B9EB" stop-opacity="0"/>
</linearGradient>
<linearGradient id="paint17_linear_26_131" x1="125.509" y1="390.504" x2="140.423" y2="390.504" gradientUnits="userSpaceOnUse">
<stop stop-color="#ECC4D7"/>
<stop offset="0.42" stop-color="#EFD4D1"/>
<stop offset="1" stop-color="#F2EAC9"/>
</linearGradient>
<linearGradient id="paint18_linear_26_131" x1="248.377" y1="207.576" x2="202.502" y2="205.907" gradientUnits="userSpaceOnUse">
<stop stop-color="#34ABEF" stop-opacity="0"/>
<stop offset="0.02" stop-color="#4FB5EA" stop-opacity="0.04"/>
<stop offset="0.18" stop-color="#58A1BC" stop-opacity="0.39"/>
<stop offset="0.35" stop-color="#4D758F" stop-opacity="0.66"/>
<stop offset="0.53" stop-color="#45566F" stop-opacity="0.85"/>
<stop offset="0.73" stop-color="#40435C" stop-opacity="0.96"/>
<stop offset="0.99" stop-color="#3F3D56"/>
</linearGradient>
<linearGradient id="paint19_linear_26_131" x1="243.405" y1="186.742" x2="248.559" y2="262.505" gradientUnits="userSpaceOnUse">
<stop stop-color="#34ABEF" stop-opacity="0"/>
<stop offset="0.02" stop-color="#4FB5EA" stop-opacity="0.04"/>
<stop offset="0.18" stop-color="#58A1BC" stop-opacity="0.39"/>
<stop offset="0.35" stop-color="#4D758F" stop-opacity="0.66"/>
<stop offset="0.53" stop-color="#45566F" stop-opacity="0.85"/>
<stop offset="0.73" stop-color="#40435C" stop-opacity="0.96"/>
<stop offset="0.99" stop-color="#3F3D56"/>
</linearGradient>
<linearGradient id="paint20_linear_26_131" x1="244.809" y1="186.651" x2="249.963" y2="262.407" gradientUnits="userSpaceOnUse">
<stop stop-color="#34ABEF" stop-opacity="0"/>
<stop offset="0.02" stop-color="#4FB5EA" stop-opacity="0.04"/>
<stop offset="0.18" stop-color="#58A1BC" stop-opacity="0.39"/>
<stop offset="0.35" stop-color="#4D758F" stop-opacity="0.66"/>
<stop offset="0.53" stop-color="#45566F" stop-opacity="0.85"/>
<stop offset="0.73" stop-color="#40435C" stop-opacity="0.96"/>
<stop offset="0.99" stop-color="#3F3D56"/>
</linearGradient>
<clipPath id="clip0_26_131">
<rect width="495" height="495" fill="white"/>
</clipPath>
</defs>
</svg>
