<svg width="74" height="74" viewBox="0 0 74 74" fill="none" xmlns="http://www.w3.org/2000/svg">
<path d="M37 2.3125C30.1395 2.3125 23.433 4.34689 17.7287 8.1584C12.0243 11.9699 7.57836 17.3874 4.95294 23.7257C2.32753 30.064 1.6406 37.0385 2.97903 43.7672C4.31745 50.4959 7.62112 56.6766 12.4722 61.5278C17.3234 66.3789 23.5041 69.6826 30.2328 71.021C36.9615 72.3594 43.936 71.6725 50.2743 69.0471C56.6127 66.4216 62.0301 61.9757 65.8416 56.2713C69.6531 50.567 71.6875 43.8605 71.6875 37C71.6875 27.8003 68.033 18.9774 61.5278 12.4722C55.0226 5.96706 46.1997 2.3125 37 2.3125ZM37 67.0625C34.6875 67.0625 31.8663 62.8306 29.9238 55.5H44.0763C42.1338 62.8306 39.3125 67.0625 37 67.0625ZM28.9294 50.875C28.2429 47.0564 27.8486 43.191 27.75 39.3125H46.25C46.1667 43.1899 45.7879 47.0552 45.1169 50.875H28.9294ZM7.05314 39.3125H23.2406C23.328 43.1876 23.6913 47.0515 24.3275 50.875H10.4525C8.55053 47.2898 7.39417 43.3566 7.05314 39.3125ZM37 6.9375C39.3125 6.9375 42.1338 11.1694 44.0763 18.5H29.9238C31.8663 11.1694 34.6875 6.9375 37 6.9375ZM45.0706 23.125C45.7571 26.9436 46.1514 30.809 46.25 34.6875H27.75C27.8334 30.8101 28.2122 26.9448 28.8831 23.125H45.0706ZM23.125 34.6875H6.93752C7.24978 30.6499 8.37458 26.7171 10.2444 23.125H24.1194C23.5141 26.9507 23.1818 30.8146 23.125 34.6875ZM50.875 39.3125H67.0625C66.7503 43.3501 65.6255 47.2829 63.7556 50.875H49.8806C50.4859 47.0493 50.8182 43.1854 50.875 39.3125ZM50.875 34.6875C50.7876 30.8124 50.4244 26.9485 49.7881 23.125H63.6631C65.5651 26.7102 66.7215 30.6434 67.0625 34.6875H50.875ZM60.7031 18.5H48.8169C48.0183 14.8228 46.6778 11.2846 44.8394 8.00125C51.1013 9.71415 56.6466 13.3948 60.6569 18.5H60.7031ZM29.1606 8.00125C27.3222 11.2846 25.9818 14.8228 25.1831 18.5H13.3431C17.3534 13.3948 22.8988 9.71415 29.1606 8.00125ZM13.3431 55.5H25.1831C25.9818 59.1772 27.3222 62.7154 29.1606 65.9987C22.8988 64.2858 17.3534 60.6052 13.3431 55.5ZM44.8394 65.9987C46.6778 62.7154 48.0183 59.1772 48.8169 55.5H60.6569C56.6466 60.6052 51.1013 64.2858 44.8394 65.9987Z" fill="black"/>
</svg>
