<svg width="120" height="120" viewBox="0 0 120 120" fill="none" xmlns="http://www.w3.org/2000/svg">
<path d="M60 112.5C49.6165 112.5 39.4662 109.421 30.8326 103.652C22.199 97.8834 15.4699 89.684 11.4963 80.0909C7.52275 70.4978 6.48307 59.9418 8.5088 49.7578C10.5345 39.5738 15.5347 30.2191 22.8769 22.8769C30.2192 15.5346 39.5738 10.5345 49.7578 8.50877C59.9418 6.48305 70.4978 7.52272 80.0909 11.4963C89.684 15.4699 97.8834 22.199 103.652 30.8326C109.421 39.4661 112.5 49.6165 112.5 60C112.5 73.9239 106.969 87.2774 97.1231 97.1231C87.2775 106.969 73.9239 112.5 60 112.5ZM60 15C51.0999 15 42.3996 17.6392 34.9994 22.5839C27.5992 27.5285 21.8314 34.5566 18.4254 42.7792C15.0195 51.0019 14.1284 60.0499 15.8647 68.7791C17.601 77.5082 21.8869 85.5264 28.1802 91.8198C34.4736 98.1132 42.4918 102.399 51.221 104.135C59.9501 105.872 68.9981 104.981 77.2208 101.575C85.4434 98.1686 92.4715 92.4009 97.4161 85.0007C102.361 77.6004 105 68.9002 105 60C105 48.0653 100.259 36.6193 91.8198 28.1802C83.3807 19.7411 71.9348 15 60 15ZM54.975 77.8125L88.725 47.8125L83.775 42.1875L52.5 69.8625L36.4125 53.5875L31.0875 58.9125L49.8375 77.6625C50.1879 78.01 50.6035 78.285 51.0604 78.4716C51.5173 78.6583 52.0065 78.7528 52.5 78.75C53.4115 78.7487 54.2914 78.4154 54.975 77.8125Z" fill="#51B73E"/>
</svg>
