<svg width="74" height="74" viewBox="0 0 74 74" fill="none" xmlns="http://www.w3.org/2000/svg">
<path d="M19.2709 23.125C19.2709 14.1833 26.5475 6.9375 35.4584 6.9375C44.3692 6.9375 51.6459 14.1833 51.6459 23.125C51.6459 25.6225 51.0909 27.9967 50.0425 30.0933C49.7959 30.0625 49.5492 30.0625 49.3025 30.0625C45.9109 30.0625 42.55 30.9875 39.59 32.7142C38.6034 33.3 37.6784 33.9475 36.815 34.6875C35.3042 35.9517 34.04 37.4317 32.9917 39.0967C29.97 38.665 27.195 37.3392 24.975 35.4275C21.4909 32.4983 19.2709 28.0583 19.2709 23.125ZM66.3842 66.3842C65.934 66.8343 65.342 67.0625 64.75 67.0625C64.158 67.0625 63.566 66.8374 63.1159 66.3842L57.8773 61.1456C57.4949 61.42 57.1465 61.7314 56.7334 61.975C54.4609 63.307 51.9264 63.9853 49.358 63.9853C48.1155 63.9853 46.8605 63.825 45.6241 63.5043C41.8409 62.5146 38.6681 60.1065 36.6948 56.7333C34.7184 53.354 34.1757 49.4104 35.1655 45.6241C36.1552 41.8408 38.5633 38.6681 41.9364 36.6947C48.9171 32.6217 57.8958 34.9681 61.975 41.9364C63.9515 45.3158 64.4941 49.2593 63.5044 53.0457C63.0357 54.8309 62.231 56.462 61.1826 57.9143L66.3873 63.1189C67.2907 64.0223 67.2907 65.4869 66.3873 66.3903L66.3842 66.3842ZM59.0274 51.8709C59.7057 49.2809 59.3326 46.5799 57.979 44.2705C56.1167 41.0885 52.762 39.3156 49.3149 39.3156C47.5944 39.3156 45.8554 39.7565 44.2675 40.6846C41.958 42.0351 40.3115 44.2057 39.6332 46.7927C38.9549 49.3796 39.3279 52.0837 40.6815 54.3931C42.0351 56.7025 44.2027 58.349 46.7896 59.0273C49.3858 59.7026 52.0806 59.3326 54.39 57.979C56.6994 56.6254 58.349 54.4578 59.0274 51.8709ZM32.7111 59.0767C30.0903 54.6058 29.3811 49.4258 30.6761 44.4617C30.7686 44.1225 30.8611 43.7833 30.9845 43.4442C27.6853 42.735 24.5711 41.1933 21.9503 38.9425C21.3028 38.4183 20.7169 37.8325 20.1311 37.2158C17.8494 38.3567 15.7836 39.8367 13.9336 41.6867C9.43195 46.1883 6.93445 52.2008 6.93445 58.5833C6.93445 63.27 10.7269 67.0625 15.4136 67.0625H41.8378C38.0145 65.49 34.8386 62.715 32.7111 59.0767Z" fill="black"/>
</svg>
