<svg width="120" height="120" viewBox="0 0 120 120" fill="none" xmlns="http://www.w3.org/2000/svg">
<path d="M16.1818 110.182H104C111.818 110.182 118.364 103.818 118.364 95.8182C118.364 94.7273 117.636 94 116.545 94H113.636V17.2727C113.636 13.0909 110.182 9.81818 106.182 9.81818H13.9999C9.81812 9.81818 6.54539 13.2727 6.54539 17.2727V94H3.6363C2.54539 94 1.81812 94.7273 1.81812 95.8182C1.81812 103.818 8.18175 110.182 16.1818 110.182ZM10.1818 17.2727C10.1818 15.0909 11.9999 13.4545 13.9999 13.4545H105.818C108 13.4545 109.636 15.2727 109.636 17.2727V94H10.1818V17.2727ZM8.36357 97.6364H111.636H114.364C113.454 102.727 109.091 106.545 103.818 106.545H16.1818C10.909 106.545 6.54539 102.727 5.6363 97.6364H8.36357Z" fill="#905BEC"/>
<path d="M96.1818 67.4545L84.7272 63.8182V60C90.3636 54.9091 94 45.8182 94 39.0909C94 29.2727 86 21.2727 76.1818 21.2727C66.3636 21.2727 58.3636 29.2727 58.3636 39.0909C58.3636 45.8182 62 54.9091 67.6363 60V64L56.1818 67.6364C52.9091 68.7273 50.7272 71.6364 50.7272 74.9091V84.5455C50.7272 85.6364 51.4545 86.3636 52.5454 86.3636H99.4545C100.545 86.3636 101.273 85.6364 101.273 84.5455V74.9091C101.636 71.4545 99.4545 68.5454 96.1818 67.4545ZM76.3636 24.9091C84.1818 24.9091 90.5454 31.2727 90.5454 39.0909C90.5454 40.3636 90.3636 41.6364 90 43.0909C89.0909 41.0909 88.7272 37.6364 88.5454 35.2727C88.5454 34.5455 88 33.8182 87.2727 33.6364C86.5454 33.4545 85.8182 33.6364 85.2727 34.1818C83.4545 36.3636 80.5454 37.8182 77.2727 38C73.4545 38.1818 69.8182 36.7273 67.4545 34.1818C66.9091 33.6364 66 33.4545 65.2727 33.8182C64.5454 34.1818 64.1818 34.9091 64.1818 35.6364C64.7272 39.2727 64 43.0909 63.2727 45.6364C62.5454 43.2727 62.1818 41.0909 62.1818 39.0909C62.1818 31.2727 68.5454 24.9091 76.3636 24.9091ZM65.0909 50C66.7272 47.8182 67.8182 43.4545 68 39.2727C70.7273 40.9091 74 41.8182 77.4545 41.6364C80.3636 41.4545 83.0909 40.7273 85.2727 39.2727C85.6364 42 86.3636 45.2727 88.1818 46.9091C88.3636 47.0909 88.5454 47.0909 88.7272 47.2727C86.3636 53.8182 81.4545 60 76.3636 60C72 60 67.8182 55.2727 65.0909 50ZM76.3636 63.6364C78 63.6364 79.6363 63.2727 81.2727 62.3636V65.2727C81.2727 66.7273 78.7273 67.4545 76.3636 67.4545C74 67.4545 71.4545 66.5455 71.4545 65.2727V62.3636C73.0909 63.0909 74.7273 63.6364 76.3636 63.6364ZM98 82.7273H92.7273V76.9091C92.7273 75.8182 92 75.0909 90.9091 75.0909C89.8182 75.0909 89.0909 75.8182 89.0909 76.9091V82.7273H63.6363V76.9091C63.6363 75.8182 62.9091 75.0909 61.8182 75.0909C60.7272 75.0909 60 75.8182 60 76.9091V82.7273H54.7273V74.9091C54.7273 73.0909 55.8182 71.6364 57.6363 71.0909L68.5454 67.6364C69.0909 68.5455 69.8182 69.4545 70.9091 70C72.3636 70.7273 74.3636 71.2727 76.3636 71.2727C80.1818 71.2727 83.0909 69.8182 84.3636 67.6364L95.2727 71.0909C96.9091 71.6364 98.1818 73.0909 98.1818 74.9091V82.7273H98ZM21.0909 38H43.8182C44.9091 38 45.6363 37.2727 45.6363 36.1818C45.6363 35.0909 44.9091 34.3636 43.8182 34.3636H21.0909C20 34.3636 19.2727 35.0909 19.2727 36.1818C19.2727 37.2727 20.1818 38 21.0909 38ZM21.0909 26.1818H43.8182C44.9091 26.1818 45.6363 25.4545 45.6363 24.3636C45.6363 23.2727 44.9091 22.5455 43.8182 22.5455H21.0909C20 22.5455 19.2727 23.2727 19.2727 24.3636C19.2727 25.4545 20.1818 26.1818 21.0909 26.1818ZM44 51.8182L20.5454 60.5455C19.8182 60.9091 19.2727 61.6364 19.4545 62.3636C19.4545 63.0909 20.1818 63.8182 20.9091 64L32.1818 66.1818L34.3636 77.4545C34.5454 78.1818 35.2727 78.9091 36 78.9091H36.1818C36.9091 78.9091 37.6363 78.3636 37.8182 77.6364L46.5454 54.1818C46.7273 53.4545 46.5454 52.7273 46.1818 52.1818C45.4545 51.8182 44.7273 51.6364 44 51.8182ZM36.5454 70.1818L35.4545 64.1818C35.2727 63.4545 34.7273 62.9091 34 62.7273L28 61.6364L41.6363 56.5455L36.5454 70.1818Z" fill="#905BEC"/>
</svg>
