<svg width="82" height="82" viewBox="0 0 82 82" fill="none" xmlns="http://www.w3.org/2000/svg">
<path d="M67.0691 12.4708C66.6722 12.1497 66.2084 11.9217 65.7117 11.8034C65.215 11.6852 64.6982 11.6797 64.1992 11.7875C60.5482 12.5526 56.7793 12.5624 53.1245 11.8161C49.4696 11.0699 46.0062 9.58343 42.9475 7.44831C42.3755 7.05154 41.6961 6.83893 41 6.83893C40.3039 6.83893 39.6244 7.05154 39.0525 7.44831C35.9937 9.58343 32.5303 11.0699 28.8755 11.8161C25.2206 12.5624 21.4517 12.5526 17.8008 11.7875C17.3018 11.6797 16.7849 11.6852 16.2883 11.8034C15.7916 11.9217 15.3277 12.1497 14.9308 12.4708C14.5344 12.7924 14.2151 13.1987 13.9963 13.6599C13.7776 14.121 13.6649 14.6254 13.6666 15.1358V40.59C13.6636 45.4886 14.831 50.3171 17.0715 54.6733C19.312 59.0296 22.5608 62.7875 26.5475 65.6341L39.0183 74.5175C39.597 74.9295 40.2896 75.1509 41 75.1509C41.7103 75.1509 42.403 74.9295 42.9816 74.5175L55.4525 65.6341C59.4391 62.7875 62.688 59.0296 64.9285 54.6733C67.169 50.3171 68.3363 45.4886 68.3333 40.59V15.1358C68.335 14.6254 68.2224 14.121 68.0036 13.6599C67.7849 13.1987 67.4655 12.7924 67.0691 12.4708ZM61.5 40.59C61.5026 44.3987 60.5955 48.153 58.8543 51.5405C57.113 54.9279 54.5879 57.8505 51.4891 60.065L41 67.5475L30.5108 60.065C27.412 57.8505 24.8869 54.9279 23.1457 51.5405C21.4044 48.153 20.4974 44.3987 20.5 40.59V19.065C27.6628 19.678 34.8365 18.0161 41 14.3158C47.1635 18.0161 54.3372 19.678 61.5 19.065V40.59ZM46.2616 32.7658L37.0708 41.9908L34.03 38.9158C33.3866 38.2724 32.514 37.911 31.6041 37.911C30.6943 37.911 29.8217 38.2724 29.1783 38.9158C28.5349 39.5592 28.1735 40.4318 28.1735 41.3416C28.1735 42.2515 28.5349 43.1241 29.1783 43.7675L34.645 49.2341C34.9626 49.5544 35.3405 49.8086 35.7568 49.982C36.1732 50.1555 36.6198 50.2448 37.0708 50.2448C37.5219 50.2448 37.9684 50.1555 38.3848 49.982C38.8011 49.8086 39.179 49.5544 39.4966 49.2341L51.25 37.5833C51.8934 36.9399 52.2548 36.0673 52.2548 35.1575C52.2548 34.2476 51.8934 33.375 51.25 32.7316C50.6066 32.0883 49.734 31.7268 48.8241 31.7268C47.9143 31.7268 47.0417 32.0883 46.3983 32.7316L46.2616 32.7658Z" fill="black"/>
</svg>
