<svg width="120" height="120" viewBox="0 0 120 120" fill="none" xmlns="http://www.w3.org/2000/svg">
<path fill-rule="evenodd" clip-rule="evenodd" d="M90 40.0001C90 35.8578 93.3577 32.5001 97.5 32.5001C101.642 32.5001 105 35.8578 105 40.0001V90.7571L97.5 102.007L90 90.7571V40.0001ZM97.5 37.5001C96.1193 37.5001 95 38.6193 95 40.0001V89.2431L97.5 92.9931L100 89.2431V40.0001C100 38.6193 98.8807 37.5001 97.5 37.5001Z" fill="#3C5DED"/>
<path fill-rule="evenodd" clip-rule="evenodd" d="M102.5 50.0001H92.5V45.0001H102.5V50.0001ZM25 20.0001C22.2386 20.0001 20 22.2386 20 25.0001V94.9981C20 97.7596 22.2386 99.9981 25 99.9981H75C77.7615 99.9981 80 97.7596 80 94.9981V25.0001C80 22.2386 77.7615 20.0001 75 20.0001H25ZM15 25.0001C15 19.4772 19.4771 15.0001 25 15.0001H75C80.5228 15.0001 85 19.4772 85 25.0001V94.9981C85 100.521 80.5228 104.998 75 104.998H25C19.4771 104.998 15 100.521 15 94.9981V25.0001Z" fill="#3C5DED"/>
<path fill-rule="evenodd" clip-rule="evenodd" d="M50 37.5001C50 36.1193 51.1192 35.0001 52.5 35.0001H72.5C73.8807 35.0001 75 36.1193 75 37.5001C75 38.8808 73.8807 40.0001 72.5 40.0001H52.5C51.1192 40.0001 50 38.8808 50 37.5001ZM50 47.5001C50 46.1193 51.1192 45.0001 52.5 45.0001H72.5C73.8807 45.0001 75 46.1193 75 47.5001C75 48.8808 73.8807 50.0001 72.5 50.0001H52.5C51.1192 50.0001 50 48.8808 50 47.5001ZM50 70.0001C50 68.6193 51.1192 67.5001 52.5 67.5001H72.5C73.8807 67.5001 75 68.6193 75 70.0001C75 71.3808 73.8807 72.5001 72.5 72.5001H52.5C51.1192 72.5001 50 71.3808 50 70.0001ZM50 80.0001C50 78.6193 51.1192 77.5001 52.5 77.5001H72.5C73.8807 77.5001 75 78.6193 75 80.0001C75 81.3808 73.8807 82.5001 72.5 82.5001H52.5C51.1192 82.5001 50 81.3808 50 80.0001ZM30 70.0001V77.5001H37.5V70.0001H30ZM27.5 65.0001H40C41.3808 65.0001 42.5 66.1193 42.5 67.5001V80.0001C42.5 81.3808 41.3808 82.5001 40 82.5001H27.5C26.1193 82.5001 25 81.3808 25 80.0001V67.5001C25 66.1193 26.1193 65.0001 27.5 65.0001ZM44.2677 35.7323C45.244 36.7086 45.244 38.2916 44.2677 39.2678L32.5 51.0356L25.7323 44.2678C24.7559 43.2916 24.7559 41.7086 25.7323 40.7323C26.7085 39.7561 28.2915 39.7561 29.2677 40.7323L32.5 43.9646L40.7323 35.7323C41.7085 34.7561 43.2915 34.7561 44.2677 35.7323Z" fill="#3C5DED"/>
</svg>
