<svg width="90" height="90" viewBox="0 0 90 90" fill="none" xmlns="http://www.w3.org/2000/svg">
<path d="M21.0938 26.7469H12.6562V35.1844H21.0938V26.7469Z" fill="#FDC475"/>
<path d="M82.9688 57.6844H77.3438V88.6219H82.9688V57.6844Z" fill="#B28966"/>
<path d="M49.2188 57.6844H43.5938V88.6219H49.2188V57.6844Z" fill="#B28966"/>
<path d="M40.7812 57.6837H85.7812C86.5272 57.6837 87.2425 57.3874 87.77 56.86C88.2974 56.3325 88.5938 55.6171 88.5938 54.8712V49.2462H37.9688V54.8712C37.9688 55.6171 38.2651 56.3325 38.7925 56.86C39.32 57.3874 40.0353 57.6837 40.7812 57.6837Z" fill="#B28966"/>
<path d="M71.3738 26.3484L68.9062 43.6212H52.0312C51.2853 43.6212 50.57 43.9175 50.0425 44.445C49.5151 44.9724 49.2188 45.6878 49.2188 46.4337V49.2462H72.0141C72.7062 49.2462 73.374 48.991 73.8898 48.5294C74.4055 48.0678 74.7329 47.4322 74.8094 46.7443L77.3438 23.9337H74.158C73.481 23.9337 72.8267 24.1779 72.3153 24.6215C71.8038 25.0651 71.4695 25.6782 71.3738 26.3484Z" fill="#E0E0E2"/>
<path d="M43.5938 45.0275C43.5945 45.5817 43.4859 46.1306 43.2741 46.6428C43.0624 47.155 42.7517 47.6203 42.3598 48.0122C41.9679 48.4041 41.5025 48.7148 40.9903 48.9266C40.4781 49.1383 39.9292 49.247 39.375 49.2462H30.4594C29.8518 49.2406 29.2613 49.0438 28.7719 48.6837L26.7188 47.1368V58.8087L7.03125 54.8712V37.9962C7.04196 36.5077 7.63803 35.0832 8.69061 34.0306C9.74319 32.978 11.1677 32.3819 12.6562 32.3712H19.125C20.404 32.369 21.645 32.8058 22.6406 33.6087L30.8812 40.19C31.3736 40.5915 31.9897 40.8101 32.625 40.8087H39.375C39.9292 40.808 40.4781 40.9166 40.9903 41.1283C41.5025 41.3401 41.9679 41.6508 42.3598 42.0427C42.7517 42.4346 43.0624 42.9 43.2741 43.4122C43.4859 43.9243 43.5945 44.4732 43.5938 45.0275Z" fill="#4EBAEA"/>
<path d="M43.5938 45.0275C43.5945 45.5817 43.4859 46.1306 43.2741 46.6428C43.0624 47.155 42.7517 47.6203 42.3598 48.0122C41.9679 48.4041 41.5025 48.7148 40.9903 48.9266C40.4781 49.1383 39.9292 49.247 39.375 49.2462H37.9688V40.8087H39.375C39.9292 40.808 40.4781 40.9166 40.9903 41.1283C41.5025 41.3401 41.9679 41.6508 42.3598 42.0427C42.7517 42.4346 43.0624 42.9 43.2741 43.4121C43.4859 43.9243 43.5945 44.4732 43.5938 45.0275Z" fill="#FDC475"/>
<path d="M37.7718 85.64L35.1562 82.9962H26.7187V87.9743C26.7173 88.0597 26.7331 88.1444 26.7651 88.2235C26.7971 88.3027 26.8447 88.3745 26.9051 88.4349C26.9654 88.4952 27.0373 88.5428 27.1164 88.5748C27.1955 88.6068 27.2803 88.6226 27.3656 88.6212H37.3218C37.4072 88.6226 37.4919 88.6068 37.571 88.5748C37.6502 88.5428 37.722 88.4952 37.7824 88.4349C37.8427 88.3745 37.8903 88.3027 37.9223 88.2235C37.9543 88.1444 37.9701 88.0597 37.9687 87.9743V86.09C37.9723 86.0049 37.9564 85.9202 37.9223 85.8422C37.8882 85.7642 37.8367 85.6951 37.7718 85.64Z" fill="#58565D"/>
<path d="M23.9062 12.6837V21.1212C23.9062 22.6131 23.3136 24.0438 22.2587 25.0987C21.2038 26.1536 19.7731 26.7462 18.2812 26.7462H15.4688C13.9769 26.7462 12.5462 26.1536 11.4913 25.0987C10.4364 24.0438 9.84375 22.6131 9.84375 21.1212V12.6837" fill="#FDC475"/>
<path d="M9.84375 18.3087H12.6562C13.4022 18.3087 14.1175 18.0124 14.645 17.485C15.1724 16.9575 15.4688 16.2421 15.4688 15.4962C15.4688 14.7503 15.7651 14.0349 16.2925 13.5075C16.82 12.98 17.5353 12.6837 18.2812 12.6837H23.9062V4.24622L21.5386 6.75587C21.256 7.05542 20.9111 7.28925 20.5282 7.44085C20.1453 7.59245 19.7338 7.65811 19.3227 7.6332L12.8264 7.23936C12.4434 7.21615 12.0597 7.27154 11.699 7.40214C11.3382 7.53273 11.008 7.73576 10.7286 7.99874C10.4492 8.26171 10.2266 8.57907 10.0744 8.93129C9.92222 9.28351 9.84373 9.66314 9.84375 10.0468V18.3087Z" fill="#58565D"/>
<path d="M26.7188 82.996V68.9337H12.6562C11.1657 68.9294 9.73754 68.3353 8.68359 67.2814C7.62965 66.2274 7.03561 64.7992 7.03125 63.3087V54.8712L32.9062 60.0462C33.5421 60.1748 34.1137 60.5197 34.5239 61.0222C34.9341 61.5247 35.1576 62.1538 35.1562 62.8025V82.9962L26.7188 82.996Z" fill="#3F6DB4"/>
</svg>
